<svg xmlns="http://www.w3.org/2000/svg" viewBox="0 0 107.85 125.55"><defs><style>.cls-1{fill:#fff;}.cls-2{fill:#010101;}.cls-3{fill:#0f649c;}</style></defs><g id="Layer_2" data-name="Layer 2"><g id="Layer_1-2" data-name="Layer 1"><circle class="cls-1" cx="53.92" cy="71.62" r="53.92"/><g id="Layer_1-2-2" data-name="Layer 1-2"><path class="cls-1" d="M66.33,0H41.63a14.51,14.51,0,0,0-14.5,14.5V89.3a14.51,14.51,0,0,0,14.5,14.5h24.6a14.51,14.51,0,0,0,14.5-14.5V14.5A14.36,14.36,0,0,0,66.33,0Z"/><path class="cls-2" d="M41.63,4.4h24.6a10.07,10.07,0,0,1,10.1,10.1V89.3a10.07,10.07,0,0,1-10.1,10.1H41.63a10.07,10.07,0,0,1-10.1-10.1V14.5A10.07,10.07,0,0,1,41.63,4.4Z"/><path class="cls-3" d="M76.43,27V37.2a39.48,39.48,0,0,1,3.9,2.9l2.1,8.3-4.5,5.9-1.5.4v3.4l3-1.6L91.13,54A41,41,0,0,1,95,71.5c0,1.2-.1,2.4-.2,3.5l-7.9-5-5.8,1.5-4.8-2.1v3.9l8.4,2.7,4.5-1.3,5.3,3.1a40.35,40.35,0,0,1-4,12.3l-1.9-.5-5-10.1-7.2-3v3.2l3.8,2.6-1.8,2.6-2-1.8v6a9.85,9.85,0,0,1-.2,1.7L82,101.2a40.85,40.85,0,0,1-9,6.4l-3.6-9a9.48,9.48,0,0,1-2.3.5l3.6,9.6a39.45,39.45,0,0,1-11.6,3.3L59,99.2h-3.4l-1.1,10.9-3.3-1.9,1.4-9h-1.9l-1.8,8.3,1.5,2.6-.8,2a40.79,40.79,0,0,1-12.4-3.4l2.4-4.3L35,102.3l2.6-4.1a10,10,0,0,1-1.4-.8l-3.6,6.4,3.1,1.3-1.4,2a38.35,38.35,0,0,1-9.1-6.9l5.7-1.2L33,93.8a9.47,9.47,0,0,1-1.3-4.9V88l-3.6,8-6.3.5a38.1,38.1,0,0,1-5.3-8.9l15.2-12.2V68.5l-17,14.2a40.93,40.93,0,0,1,1.7-27.8l7.2.4,5.5,6.7,2.4.1V59.7l-7.7-6.5-6-1.2a41.34,41.34,0,0,1,7.1-9.5l.4-.4,4.9,6.5,1.3.4V44.5l-1.8-.1-2-4.4a33.75,33.75,0,0,1,3.8-2.8V27a49.71,49.71,0,1,0,44.9,0Zm7.9,25.6h-2.6l3-6.8-.3-1.6a34.85,34.85,0,0,1,4.3,5.8Zm-.2,46.7-5-11.3,4.2-3.4,3.5,8.3,2,.5A38,38,0,0,1,84.13,99.3Z"/></g></g></g></svg>