<?xml version="1.0" encoding="utf-8"?>
<!-- Generator: Adobe Illustrator 26.0.2, SVG Export Plug-In . SVG Version: 6.00 Build 0)  -->
<svg version="1.1" id="Layer_1" xmlns="http://www.w3.org/2000/svg" xmlns:xlink="http://www.w3.org/1999/xlink" x="0px" y="0px"
	 viewBox="0 0 99.7 121.4" style="enable-background:new 0 0 99.7 121.4;" xml:space="preserve">
<style type="text/css">
	.st0{fill:#FFFFFF;}
	.st1{fill:#010101;}
	.st2{fill:#0F649C;}
</style>
<g id="Layer_2_00000087397807183964942870000009149957853530496641_">
	<g id="Layer_1-2">
		<path class="st0" d="M62.2,0H37.5C29.5,0,23,6.5,23,14.5v74.8c0,8,6.5,14.5,14.5,14.5h24.6c8,0,14.5-6.5,14.5-14.5V14.5
			C76.7,6.5,70.2,0,62.2,0z"/>
		<path class="st1" d="M37.5,4.4h24.6c5.6,0,10.1,4.5,10.1,10.1v74.8c0,5.6-4.5,10.1-10.1,10.1H37.5c-5.6,0-10.1-4.5-10.1-10.1V14.5
			C27.4,8.9,31.9,4.4,37.5,4.4z"/>
		<path class="st2" d="M72.3,27v10.2c1.4,0.9,2.7,1.9,3.9,2.9l2.1,8.3l-4.5,5.9l-1.5,0.4v3.4l3-1.6L87,54c2.6,5.5,3.9,11.5,3.9,17.5
			c0,1.2-0.1,2.4-0.2,3.5l-7.9-5l-5.8,1.5l-4.8-2.1v3.9l8.4,2.7l4.5-1.3l5.3,3.1c-0.7,4.3-2,8.5-4,12.3l-1.9-0.5l-5-10.1l-7.2-3v3.2
			l3.8,2.6l-1.8,2.6l-2-1.8v6c0,0.6-0.1,1.1-0.2,1.7l5.8,10.4c-2.7,2.5-5.7,4.7-9,6.4l-3.6-9c-0.8,0.3-1.5,0.4-2.3,0.5l3.6,9.6
			c-3.7,1.7-7.6,2.8-11.6,3.3l-0.1-12.8h-3.4l-1.1,10.9l-3.3-1.9l1.4-9h-1.9l-1.8,8.3l1.5,2.6l-0.8,2c-4.3-0.5-8.5-1.6-12.4-3.4
			l2.4-4.3l-4.6-2.1l2.6-4.1c-0.5-0.2-0.9-0.5-1.4-0.8l-3.6,6.4l3.1,1.3l-1.4,2c-3.4-1.8-6.4-4.2-9.1-6.9l5.7-1.2l2.1-5.2
			c-0.9-1.5-1.3-3.2-1.3-4.9v-0.9l-3.6,8l-6.3,0.5c-2.2-2.7-3.9-5.7-5.3-8.9l15.2-12.2v-6.9l-17,14.2c-2.7-9.2-2.1-19,1.7-27.8
			l7.2,0.4L25,62l2.4,0.1v-2.4l-7.7-6.5L13.7,52c1.9-3.5,4.3-6.7,7.1-9.5l0.4-0.4l4.9,6.5l1.3,0.4v-4.5l-1.8-0.1L23.6,40
			c1.2-1,2.5-2,3.8-2.8V27C2.8,39.4-7.1,69.4,5.3,93.9s42.4,34.5,66.9,22.1s34.5-42.4,22.1-66.9C89.6,39.6,81.8,31.8,72.3,27z
			 M80.2,52.6h-2.6l3-6.8l-0.3-1.6c1.6,1.8,3.1,3.7,4.3,5.8L80.2,52.6z M80,99.3L75,88l4.2-3.4l3.5,8.3l2,0.5
			C83.3,95.5,81.8,97.5,80,99.3z"/>
	</g>
</g>
</svg>
