<?xml version="1.0" encoding="utf-8"?>
<!-- Generator: Adobe Illustrator 26.0.2, SVG Export Plug-In . SVG Version: 6.00 Build 0)  -->
<svg version="1.1" id="Logo" xmlns="http://www.w3.org/2000/svg" xmlns:xlink="http://www.w3.org/1999/xlink" x="0px" y="0px"
	 viewBox="0 0 398.1 87.4" style="enable-background:new 0 0 398.1 87.4;" xml:space="preserve">
<style type="text/css">
	.st0{fill:#0085DC;}
</style>
<g>
	<path class="st0" d="M49.6,22.4v8.1l1,4.2l-1,1.3v3.7l6.7-1.4c1.7,3.5,2.5,7.4,2.5,11.3c0,0.8,0,1.5-0.1,2.3l-5.1-3.2l-3.7,1
		l-0.3-0.1v2.2l2.6,0.8l2.9-0.9l3.4,2c-0.4,2.8-1.3,5.5-2.6,8l-1.2-0.3l-3.2-6.5L49.6,54v5.2l1.6-1.3l2.3,5.4l1.3,0.3
		c-0.9,1.4-1.9,2.7-3,3.9l-2.3-5.1c-0.2,1-0.5,2.1-1,3l1.9,3.4c-1.7,1.6-3.7,3.1-5.8,4.2l-1.3-3.2c-0.5,0.2-1,0.3-1.5,0.4l1.3,3.5
		c-2.4,1.1-4.9,1.8-7.5,2.1l-0.1-5.4H33l-0.4,4.2l-2.2-1.2l0.5-3h-1.4L29,73l1,1.7L29.4,76c-2.8-0.3-5.5-1-8-2.2l1.4-2.8l-3-1.3
		l0.1-0.2c-0.2-0.1-0.5-0.3-0.7-0.4l-0.9,1.7l2,0.8l-0.9,1.3c-2.2-1.2-4.2-2.7-5.9-4.4l3.7-0.8l0.1-0.3c-0.7-0.7-1.2-1.5-1.6-2.4
		l-0.3,0.7L11.3,66c-1.4-1.8-2.5-3.7-3.4-5.8l7-5.6v-4.3L6.8,57c-1.8-5.9-1.4-12.3,1-18l4.7,0.3l2.4,2.7v-2.5l-2.2-1.8l-3.8-0.8
		c1.2-2.3,2.8-4.3,4.6-6.1l0.3-0.3l1.1,1.5v-9.7C-0.1,32-4.5,51.9,5.1,66.9s29.5,19.4,44.5,9.8S69,47.2,59.4,32.2
		C56.9,28.3,53.5,24.9,49.6,22.4z M51.9,37.3h-1.7l2-4.4l-0.2-1c1,1.2,2,2.4,2.8,3.7L51.9,37.3z"/>
	<path d="M24.3,6.1h15.9c3.6,0,6.5,2.9,6.5,6.5V61c0,3.6-2.9,6.5-6.5,6.5H24.3c-3.6,0-6.5-2.9-6.5-6.5V12.7
		C17.7,9.1,20.7,6.1,24.3,6.1z"/>
</g>
<g>
	<path class="st0" d="M83.7,77.6h313.2c0.7,0,1.2,0.5,1.2,1.2v1.6c0,0.7-0.5,1.2-1.2,1.2H83.7c-0.7,0-1.2-0.5-1.2-1.2v-1.6
		C82.5,78.1,83.1,77.6,83.7,77.6z"/>
	<path class="st0" d="M83.7,6.2h313.2c0.7,0,1.2,0.5,1.2,1.2V9c0,0.7-0.5,1.2-1.2,1.2H83.7c-0.7,0-1.2-0.5-1.2-1.2V7.4
		C82.5,6.7,83.1,6.2,83.7,6.2z"/>
	<g>
		<g>
			<path d="M82.5,27c0-2.1,0.9-4.1,2.5-5.5c1.8-1.3,4-2,6.2-1.9h20.9c1.4,0,2.5,1.1,2.5,2.5s-1.1,2.5-2.5,2.5H91.2
				c-1.1-0.1-2.2,0.2-3.1,0.8c-0.5,0.4-0.8,1-0.7,1.7c-0.1,0.6,0.2,1.3,0.7,1.7c0.9,0.6,2,0.9,3.1,0.8h17.1c2.2-0.1,4.4,0.6,6.2,1.9
				c3,2.6,3.4,7.1,0.8,10.1c-0.2,0.3-0.5,0.6-0.8,0.8c-1.8,1.3-4,2-6.2,1.9H85.8c-1.4,0-2.5-1.1-2.5-2.5s1.1-2.5,2.5-2.5l0,0h22.5
				c1.1,0.1,2.2-0.2,3.1-0.8c0.9-0.9,1-2.3,0.1-3.2l-0.1-0.1c-0.9-0.6-2-0.9-3.1-0.8H91.2c-2.2,0.1-4.4-0.6-6.2-1.9
				C83.4,31.1,82.5,29.1,82.5,27z"/>
			<path d="M121.3,41.8V22.1c0-1.4,1.1-2.5,2.5-2.5s2.5,1.1,2.5,2.5v7.4h24.6v-7.4c0-1.4,1.1-2.5,2.5-2.5s2.5,1.1,2.5,2.5v19.7
				c0,1.4-1.1,2.5-2.5,2.5s-2.5-1.1-2.5-2.5l0,0v-7.4h-24.6v7.4c0,1.4-1.1,2.5-2.5,2.5C122.4,44.2,121.3,43.1,121.3,41.8L121.3,41.8
				z"/>
			<path d="M160,41.8V29.5c-0.1-2.8,1.2-5.5,3.3-7.3c2.4-1.8,5.4-2.7,8.5-2.6h10.9c3-0.1,6,0.8,8.5,2.6c2.2,1.8,3.4,4.5,3.3,7.3
				v12.3c0,1.4-1.1,2.5-2.5,2.5s-2.5-1.1-2.5-2.5l0,0v-7.4h-24.6v7.4c0,1.4-1.1,2.5-2.5,2.5C161.1,44.2,160,43.1,160,41.8L160,41.8
				L160,41.8z M164.9,29.5h24.6c0.1-1.3-0.5-2.6-1.6-3.4c-1.6-1.1-3.5-1.6-5.4-1.5h-10.9c-1.9-0.1-3.8,0.4-5.4,1.5
				C165.4,26.9,164.8,28.1,164.9,29.5L164.9,29.5z"/>
			<path d="M201.1,24.5c-1.4,0-2.5-1.1-2.5-2.5s1.1-2.5,2.5-2.5h29.6c1.4,0,2.5,1.1,2.5,2.5s-1.1,2.5-2.5,2.5h-12.3v17.2
				c0,1.4-1.1,2.5-2.5,2.5s-2.5-1.1-2.5-2.5l0,0V24.5H201.1z"/>
			<path d="M239.9,24.5c-1.4,0-2.5-1.1-2.5-2.5s1.1-2.5,2.5-2.5h29.6c1.4,0,2.5,1.1,2.5,2.5s-1.1,2.5-2.5,2.5h-12.3v17.2
				c0,1.4-1.1,2.5-2.5,2.5s-2.5-1.1-2.5-2.5l0,0V24.5H239.9z"/>
			<path d="M279.4,41.7c-2.2-1.8-3.4-4.5-3.3-7.3v-4.9c-0.1-2.8,1.2-5.5,3.3-7.3c2.4-1.8,5.4-2.7,8.5-2.6h20.2
				c1.4,0,2.5,1.1,2.5,2.5s-1.1,2.5-2.5,2.5h-20.2c-1.9-0.1-3.8,0.4-5.4,1.5c-1,0.8-1.6,2.1-1.6,3.4h25.5c1.4,0,2.5,1.1,2.5,2.5
				c0,1.4-1.1,2.5-2.5,2.5H281c-0.1,1.3,0.5,2.6,1.5,3.5c1.6,1.1,3.5,1.6,5.4,1.5h20.2c1.4,0.1,2.4,1.3,2.3,2.6
				c-0.1,1.2-1.1,2.2-2.3,2.3h-20.2C284.9,44.4,281.9,43.4,279.4,41.7L279.4,41.7z"/>
			<path d="M346.8,32.5c-0.6,0.5-1.4,0.9-2.1,1.2l4.3,6.8c0.8,1.1,0.5,2.6-0.6,3.4c-1.1,0.8-2.6,0.5-3.4-0.6
				c-0.1-0.1-0.1-0.1-0.1-0.2l-5.5-8.7h-19.5v7.4c0,1.4-1.1,2.5-2.5,2.5s-2.5-1.1-2.5-2.5V22.1c0-1.4,1.1-2.5,2.5-2.5h23.3
				c2.2-0.1,4.4,0.6,6.2,1.9c1.6,1.3,2.6,3.4,2.5,5.5C349.3,29.1,348.4,31.1,346.8,32.5z M319.8,29.5h20.9c1.1,0.1,2.2-0.2,3.1-0.8
				c0.5-0.4,0.8-1,0.7-1.7c0.1-0.6-0.2-1.3-0.7-1.7c-0.9-0.6-2-0.9-3.1-0.8h-20.9V29.5z"/>
			<path d="M356.1,27.6c0,0.1-0.1,0.1-0.1,0.1c-0.6,0.5-1.4,0.5-2,0c-0.3-0.3-0.4-0.6-0.4-1v-4.3c0-1.6,1.3-2.9,2.8-2.9
				s2.9,1.3,2.9,2.8c0,0.6-0.2,1.3-0.6,1.8L356.1,27.6L356.1,27.6z"/>
			<path d="M363.5,41.8V22.1c0-1.4,1.1-2.5,2.5-2.5h20.2c3-0.1,6,0.8,8.5,2.6c2.2,1.8,3.4,4.5,3.3,7.3v4.9c0.1,2.8-1.2,5.5-3.3,7.3
				c-2.4,1.8-5.4,2.7-8.5,2.6H366C364.6,44.2,363.5,43.1,363.5,41.8z M368.4,39.3h17.8c1.9,0.1,3.8-0.4,5.4-1.5
				c1-0.8,1.6-2.1,1.5-3.4v-4.9c0.1-1.3-0.5-2.6-1.5-3.4c-1.6-1.1-3.5-1.6-5.4-1.5h-17.7L368.4,39.3z"/>
		</g>
		<g>
			<path d="M85,66.6c-1.4-1.1-2.2-2.8-2.1-4.6v-3.1c0-1.8,0.7-3.5,2.1-4.6c1.5-1.1,3.4-1.7,5.4-1.6h12.8c0.9,0,1.6,0.7,1.6,1.6
				c0,0.9-0.7,1.6-1.6,1.6H90.4c-1.2-0.1-2.4,0.2-3.4,0.9c-0.7,0.5-1,1.3-1,2.2v3.1c0,0.9,0.4,1.7,1,2.2c1,0.7,2.2,1,3.4,0.9h12.8
				c0.9,0,1.6,0.7,1.6,1.6s-0.7,1.6-1.6,1.6H90.4C88.5,68.3,86.5,67.8,85,66.6z"/>
			<path d="M109.8,66.6c-1.4-1.1-2.2-2.8-2.1-4.6v-3.1c0-1.8,0.7-3.5,2.1-4.6c1.5-1.1,3.4-1.7,5.4-1.6H128c0.9,0,1.6,0.7,1.6,1.6
				s-0.7,1.6-1.6,1.6l0,0h-12.8c-1.2-0.1-2.4,0.2-3.4,0.9c-0.7,0.5-1,1.3-1,2.2H127c0.9-0.1,1.6,0.6,1.7,1.4s-0.6,1.6-1.4,1.7
				c-0.1,0-0.2,0-0.2,0h-16.2c0,0.8,0.3,1.7,1,2.2c1,0.7,2.2,1,3.4,0.9H128c0.9-0.1,1.6,0.5,1.8,1.3c0.1,0.9-0.5,1.6-1.3,1.8
				c-0.1,0-0.3,0-0.4,0h-12.8C113.3,68.3,111.4,67.7,109.8,66.6L109.8,66.6z"/>
			<path d="M132.5,62v-7.8c0-0.9,0.7-1.6,1.6-1.6c0.9,0,1.6,0.7,1.6,1.6V62c0,0.8,0.3,1.7,1,2.2c1,0.7,2.2,1,3.4,0.9h12.8
				c0.9,0,1.6,0.7,1.6,1.6s-0.7,1.6-1.6,1.6H140c-1.9,0.1-3.8-0.5-5.4-1.6C133.2,65.5,132.5,63.8,132.5,62z"/>
			<path d="M157.3,62v-7.8c0-0.9,0.7-1.6,1.6-1.6c0.9,0,1.6,0.7,1.6,1.6V62c0,0.8,0.3,1.7,1,2.2c1,0.7,2.2,1,3.4,0.9h12.8
				c0.9,0,1.6,0.7,1.6,1.6s-0.7,1.6-1.6,1.6h-12.8c-1.9,0.1-3.8-0.5-5.4-1.6C158,65.5,157.3,63.8,157.3,62z"/>
			<path d="M196.4,57.3c0-1.3,0.6-2.6,1.6-3.5c1.1-0.8,2.5-1.3,3.9-1.2h13.2c0.9,0,1.6,0.7,1.6,1.6c0,0.9-0.7,1.6-1.6,1.6H202
				c-0.7,0-1.4,0.1-1.9,0.5c-0.6,0.6-0.6,1.5,0,2.1l0,0c0.6,0.4,1.3,0.6,1.9,0.5h10.8c1.4-0.1,2.8,0.4,3.9,1.2
				c1.9,1.6,2.1,4.5,0.5,6.4c-0.2,0.2-0.3,0.4-0.5,0.5c-1.1,0.8-2.5,1.3-3.9,1.2h-14.3c-0.9,0.1-1.6-0.6-1.7-1.4s0.6-1.6,1.4-1.7
				c0.1,0,0.2,0,0.2,0h14.3c0.7,0,1.4-0.1,1.9-0.5c0.6-0.6,0.6-1.5,0-2.1l0,0c-0.6-0.4-1.3-0.6-1.9-0.5H202
				c-1.4,0.1-2.8-0.4-3.9-1.2C197,59.9,196.4,58.7,196.4,57.3z"/>
			<path d="M243.1,58.9V62c0,1.8-0.7,3.5-2.1,4.6c-1.6,1.1-3.5,1.7-5.4,1.6h-6.9c-1.9,0.1-3.8-0.5-5.4-1.6c-1.4-1.1-2.2-2.8-2.1-4.6
				v-3.1c0-1.8,0.7-3.5,2.1-4.6c1.6-1.1,3.4-1.7,5.4-1.6h6.9c1.9-0.1,3.8,0.5,5.4,1.6C242.4,55.4,243.1,57.1,243.1,58.9z M240,58.9
				c0-0.8-0.3-1.7-1-2.2c-1-0.7-2.2-1-3.4-0.9h-6.9c-1.2-0.1-2.4,0.2-3.4,0.9c-0.7,0.5-1,1.3-1,2.2V62c0,0.8,0.3,1.7,1,2.2
				c1,0.7,2.2,1,3.4,0.9h6.9c1.2,0.1,2.4-0.2,3.4-0.9c0.7-0.5,1-1.3,1-2.2V58.9z"/>
			<path d="M246,62v-7.8c0-0.9,0.7-1.6,1.6-1.6c0.9,0,1.6,0.7,1.6,1.6V62c0,0.8,0.3,1.7,1,2.2c1,0.7,2.2,1,3.4,0.9h12.8
				c0.9,0,1.6,0.7,1.6,1.6s-0.7,1.6-1.6,1.6h-12.8c-1.9,0.1-3.8-0.5-5.4-1.6C246.8,65.5,246,63.8,246,62z"/>
			<path d="M292.7,54.2V62c0,1.8-0.7,3.5-2.1,4.6c-1.6,1.1-3.4,1.7-5.4,1.6h-6.9c-1.9,0.1-3.8-0.5-5.3-1.6c-1.4-1.1-2.2-2.8-2.1-4.6
				v-7.8c0-0.9,0.7-1.6,1.6-1.6s1.6,0.7,1.6,1.6l0,0V62c0,0.8,0.3,1.7,1,2.2c1,0.7,2.2,1,3.4,0.9h6.9c1.2,0.1,2.4-0.2,3.4-0.9
				c0.7-0.5,1-1.3,1-2.2v-7.8c0-0.9,0.7-1.6,1.6-1.6s1.6,0.7,1.6,1.6l0,0H292.7z"/>
			<path d="M297.2,55.8c-0.9,0-1.6-0.7-1.6-1.6c0-0.9,0.7-1.6,1.6-1.6H316c0.9,0,1.6,0.7,1.6,1.6c0,0.9-0.7,1.6-1.6,1.6l0,0h-7.8
				v10.9c0,0.9-0.7,1.6-1.6,1.6s-1.6-0.7-1.6-1.6V55.8H297.2z"/>
			<path d="M322,68.2c-0.9,0-1.6-0.7-1.6-1.5l0,0V54.2c0-0.9,0.7-1.6,1.6-1.6s1.6,0.7,1.6,1.6v12.5C323.5,67.5,322.8,68.2,322,68.2z
				"/>
			<path d="M348.3,58.9V62c0,1.8-0.7,3.5-2.1,4.6c-1.6,1.1-3.4,1.7-5.4,1.6H334c-1.9,0.1-3.8-0.5-5.4-1.6c-1.4-1.1-2.1-2.8-2.1-4.6
				v-3.1c0-1.8,0.7-3.5,2.1-4.6c1.6-1.1,3.4-1.7,5.4-1.6h6.9c1.9-0.1,3.8,0.5,5.4,1.6C347.6,55.4,348.4,57.1,348.3,58.9z
				 M345.2,58.9c0-0.8-0.3-1.7-1-2.2c-1-0.7-2.2-1-3.4-0.9H334c-1.2-0.1-2.4,0.2-3.4,0.9c-0.7,0.5-1,1.3-1,2.2V62
				c0,0.8,0.3,1.7,1,2.2c1,0.7,2.2,1,3.4,0.9h6.9c1.2,0.1,2.4-0.2,3.4-0.9c0.7-0.5,1-1.3,1-2.2L345.2,58.9z"/>
			<path d="M351.3,66.7V54.2c0-0.9,0.7-1.6,1.5-1.6c0.3,0,0.6,0.1,0.9,0.3L370,63.8v-9.6c0-0.9,0.7-1.6,1.6-1.6s1.6,0.7,1.6,1.6
				v12.5c0,0.6-0.3,1.1-0.8,1.4c-0.2,0.1-0.5,0.2-0.7,0.2c-0.3,0-0.6-0.1-0.9-0.3l-16.3-10.9v9.6c0,0.9-0.7,1.6-1.6,1.6
				C352,68.2,351.3,67.5,351.3,66.7z"/>
			<path d="M376.1,57.3c0-1.3,0.6-2.6,1.6-3.5c1.1-0.8,2.5-1.3,3.9-1.2h13.2c0.9,0,1.6,0.7,1.6,1.6c0,0.9-0.7,1.6-1.6,1.6l0,0h-13.2
				c-0.7,0-1.4,0.1-1.9,0.5c-0.6,0.6-0.6,1.5,0,2.1l0,0c0.6,0.4,1.3,0.6,1.9,0.5h10.8c1.4-0.1,2.8,0.4,3.9,1.2
				c1.9,1.6,2.1,4.5,0.5,6.4c-0.2,0.2-0.3,0.4-0.5,0.5c-1.1,0.8-2.5,1.3-3.9,1.2h-14.3c-0.9,0.1-1.6-0.6-1.7-1.4
				c-0.1-0.9,0.6-1.6,1.4-1.7c0.1,0,0.2,0,0.2,0h14.3c0.7,0,1.4-0.1,1.9-0.5c0.6-0.6,0.6-1.5,0-2.1l0,0c-0.6-0.4-1.3-0.6-1.9-0.5
				h-10.8c-1.4,0.1-2.8-0.4-3.9-1.2C376.6,59.9,376.1,58.7,376.1,57.3z"/>
		</g>
	</g>
</g>
</svg>
