<?xml version="1.0" encoding="utf-8"?>
<!-- Generator: Adobe Illustrator 26.0.2, SVG Export Plug-In . SVG Version: 6.00 Build 0)  -->
<svg version="1.1" id="Logo" xmlns="http://www.w3.org/2000/svg" xmlns:xlink="http://www.w3.org/1999/xlink" x="0px" y="0px"
	 viewBox="0 0 398.1 87.4" style="enable-background:new 0 0 398.1 87.4;" xml:space="preserve">
<style type="text/css">
	.st0{fill:#0085DC;}
</style>
<g id="Logo_00000035510464643562270210000009569824583979868854_">
	<g>
		<path class="st0" d="M49.6,22.4v8.1l1,4.2l-1,1.3v3.7l6.7-1.4c1.7,3.5,2.5,7.4,2.5,11.3c0,0.8,0,1.5-0.1,2.3l-5.1-3.2l-3.7,1
			l-0.3-0.1v2.2l2.6,0.8l2.9-0.9l3.4,2c-0.4,2.8-1.3,5.5-2.6,8l-1.2-0.3l-3.2-6.5L49.6,54v5.2l1.6-1.3l2.3,5.4l1.3,0.3
			c-0.9,1.4-1.9,2.7-3,3.9l-2.3-5.1c-0.2,1-0.5,2.1-1,3l1.9,3.4c-1.7,1.6-3.7,3.1-5.8,4.2l-1.3-3.2c-0.5,0.2-1,0.3-1.5,0.4l1.3,3.5
			c-2.4,1.1-4.9,1.8-7.5,2.1l-0.1-5.4H33l-0.4,4.2l-2.2-1.2l0.5-3h-1.4L29,73l1,1.7L29.4,76c-2.8-0.3-5.5-1-8-2.2l1.4-2.8l-3-1.3
			l0.1-0.2c-0.2-0.1-0.5-0.3-0.7-0.4l-0.9,1.7l2,0.8l-0.9,1.3c-2.2-1.2-4.2-2.7-5.9-4.4l3.7-0.8l0.1-0.3c-0.7-0.7-1.2-1.5-1.6-2.4
			l-0.3,0.7L11.3,66c-1.4-1.8-2.5-3.7-3.4-5.8l7-5.6v-4.3L6.8,57c-1.8-5.9-1.4-12.3,1-18l4.7,0.3l2.4,2.7v-2.5l-2.2-1.8l-3.8-0.8
			c1.2-2.3,2.8-4.3,4.6-6.1l0.3-0.3l1.1,1.5v-9.7C-0.1,32-4.5,51.9,5.1,66.9s29.5,19.4,44.5,9.8S69,47.2,59.4,32.2
			C56.9,28.3,53.5,24.9,49.6,22.4z M51.9,37.3h-1.7l2-4.4l-0.2-1c1,1.2,2,2.4,2.8,3.7L51.9,37.3z"/>
		<path class="st0" d="M83.7,71.4h313.2c0.7,0,1.2,0.5,1.2,1.2v1.6c0,0.7-0.5,1.2-1.2,1.2H83.7c-0.7,0-1.2-0.5-1.2-1.2v-1.6
			C82.5,71.9,83.1,71.4,83.7,71.4z"/>
		<path class="st0" d="M83.7,0h313.2c0.7,0,1.2,0.5,1.2,1.2v1.6c0,0.7-0.5,1.2-1.2,1.2H83.7c-0.7,0-1.2-0.5-1.2-1.2V1.2
			C82.5,0.5,83.1,0,83.7,0z"/>
	</g>
	<g>
		<path d="M24.3,6.1h15.9c3.6,0,6.5,2.9,6.5,6.5V61c0,3.6-2.9,6.5-6.5,6.5H24.3c-3.6,0-6.5-2.9-6.5-6.5V12.7
			C17.7,9.1,20.7,6.1,24.3,6.1z"/>
		<path d="M86.3,86.9c-0.6,0-1.2-0.1-1.7-0.2c-0.4-0.1-0.8-0.3-1.1-0.5c-0.2-0.2-0.4-0.4-0.4-0.7c0,0,0-0.1,0.1-0.1s0.1,0,0.2,0h0.9
			c0.1,0,0.1,0,0.2,0l0.1,0.1c0.1,0.1,0.2,0.2,0.3,0.3c0.2,0.1,0.4,0.2,0.6,0.2c0.3,0.1,0.6,0.1,0.9,0.1c0.4,0,0.9,0,1.3-0.2
			c0.3-0.1,0.4-0.3,0.4-0.5S88,85.1,87.9,85c-0.2-0.1-0.4-0.2-0.7-0.2L86,84.6c-0.5-0.1-0.9-0.2-1.4-0.3c-0.3-0.1-0.6-0.2-0.8-0.5
			c-0.2-0.2-0.3-0.5-0.3-0.7c0-0.3,0.1-0.6,0.3-0.8c0.3-0.2,0.6-0.4,1-0.5c0.5-0.1,1-0.2,1.6-0.2c0.4,0,0.9,0,1.3,0.1
			c0.3,0.1,0.6,0.2,0.9,0.3c0.2,0.1,0.4,0.3,0.6,0.4c0.1,0.1,0.2,0.3,0.2,0.5c0,0,0,0.1-0.1,0.1s-0.1,0-0.2,0h-0.9
			c-0.1,0-0.1,0-0.2,0s-0.1-0.1-0.2-0.1c0-0.2-0.2-0.3-0.4-0.4c-0.3-0.1-0.7-0.2-1-0.2s-0.7,0-1,0.2C85.2,82.6,85,82.8,85,83
			c0,0.1,0.1,0.3,0.2,0.4c0.2,0.1,0.4,0.2,0.6,0.2c0.3,0.1,0.7,0.2,1.1,0.2c0.5,0.1,1,0.2,1.6,0.3c0.3,0.1,0.6,0.2,0.9,0.5
			c0.2,0.2,0.3,0.4,0.3,0.7c0,0.3-0.1,0.6-0.4,0.8c-0.3,0.3-0.7,0.5-1.2,0.6C87.5,86.8,86.9,86.9,86.3,86.9z"/>
		<path d="M93.8,86.9c-0.6,0-1.2-0.1-1.8-0.2c-0.4-0.1-0.8-0.3-1.1-0.6c-0.3-0.3-0.4-0.7-0.4-1.1c0-0.2,0-0.4,0-0.6s0-0.5,0-0.7
			c0-0.4,0.2-0.8,0.4-1.1c0.3-0.3,0.7-0.6,1.1-0.7c0.6-0.2,1.2-0.3,1.8-0.2c0.5,0,0.9,0,1.4,0.1c0.3,0.1,0.7,0.2,1,0.4
			c0.2,0.1,0.5,0.3,0.6,0.5s0.2,0.4,0.2,0.7c0,0,0,0.1-0.1,0.1s-0.1,0-0.2,0.1h-0.9c-0.1,0-0.1,0-0.2-0.1l-0.1-0.1
			c-0.1-0.3-0.3-0.6-0.7-0.7c-0.4-0.1-0.8-0.2-1.2-0.2c-0.4,0-0.9,0.1-1.3,0.3c-0.3,0.2-0.5,0.6-0.5,1s0,0.8,0,1.2
			c0,0.4,0.2,0.8,0.5,1c0.4,0.2,0.8,0.3,1.3,0.3c0.4,0,0.8-0.1,1.2-0.3c0.3-0.1,0.5-0.4,0.7-0.7c0-0.1,0-0.1,0.1-0.1s0.1,0,0.2,0
			h0.9c0.1,0,0.1,0,0.2,0l0.1,0.1c0,0.2-0.1,0.5-0.2,0.7c-0.2,0.2-0.4,0.4-0.6,0.5c-0.3,0.2-0.7,0.3-1,0.4
			C94.8,86.8,94.3,86.9,93.8,86.9z"/>
		<path d="M98.8,86.8c-0.1,0-0.1,0-0.2,0l-0.1-0.1v-4.8c0-0.1,0-0.1,0.1-0.1s0.1,0,0.2,0h2.9c0.7,0,1.5,0.1,2.1,0.4
			c0.5,0.2,0.8,0.7,0.8,1.2c0,0.4-0.1,0.7-0.4,0.9c-0.3,0.3-0.7,0.4-1.1,0.5l1.7,1.9v0.1c0,0,0,0.1-0.1,0.1s-0.1,0-0.2,0h-0.9
			c-0.1,0-0.2,0-0.3-0.1c-0.1,0-0.1-0.1-0.2-0.1l-1.5-1.8H100v1.8c0,0.1,0,0.1-0.1,0.1s-0.1,0-0.2,0H98.8z M100,84.1h1.7
			c0.4,0,0.8,0,1.1-0.2c0.2-0.1,0.4-0.3,0.4-0.6c0-0.3-0.1-0.5-0.4-0.6c-0.3-0.2-0.7-0.2-1.1-0.2H100V84.1z"/>
		<path d="M106.3,86.8c-0.1,0-0.1,0-0.2,0l-0.1-0.1v-4.8c0-0.1,0-0.1,0.1-0.1s0.1,0,0.2,0h4.9c0.1,0,0.1,0,0.2,0s0.1,0.1,0.1,0.1
			v0.4c0,0.1,0,0.1-0.1,0.1s-0.1,0-0.2,0h-3.8v1.4h3.5c0.1,0,0.1,0,0.2,0.1l0.1,0.1v0.4c0,0.1,0,0.1-0.1,0.1s-0.1,0-0.2,0h-3.5V86
			h3.8c0.1,0,0.1,0,0.2,0l0.1,0.1v0.4c0,0.1,0,0.1-0.1,0.1s-0.1,0-0.2,0L106.3,86.8z"/>
		<path d="M113.3,86.8c-0.1,0-0.1,0-0.2,0l-0.1-0.1v-4.8c0-0.1,0-0.1,0.1-0.1s0.1,0,0.2,0h4.9c0.1,0,0.1,0,0.2,0l0.1,0.1v0.4
			c0,0.1,0,0.1-0.1,0.1s-0.1,0-0.2,0h-3.8v1.4h3.5c0.1,0,0.1,0,0.2,0.1l0.1,0.1v0.4c0,0.1,0,0.1-0.1,0.1s-0.1,0-0.2,0h-3.5V86h3.8
			c0.1,0,0.1,0,0.2,0l0.1,0.1v0.4c0,0.1,0,0.1-0.1,0.1s-0.1,0-0.2,0L113.3,86.8z"/>
		<path d="M120.3,86.8c-0.1,0-0.1,0-0.2,0s-0.1-0.1-0.1-0.1v-4.8c0-0.1,0-0.1,0.1-0.1s0.1,0,0.2,0h0.8c0.1,0,0.1,0,0.2,0
			c0,0,0.1,0,0.1,0.1l3.4,3.4v-3.4c0-0.1,0-0.1,0.1-0.1s0.1,0,0.2,0h0.8c0.1,0,0.1,0,0.2,0l0.1,0.1v4.8c0,0.1,0,0.1-0.1,0.1
			s-0.1,0.1-0.2,0.1h-0.8c-0.1,0-0.1,0-0.2,0l-0.1-0.1l-3.4-3.3v3.3c0,0.1,0,0.1-0.1,0.1s-0.1,0-0.2,0L120.3,86.8z"/>
		<path d="M130.9,86.8c-0.1,0-0.1,0-0.2,0l-0.1-0.1v-4.8c0-0.1,0-0.1,0.1-0.1s0.1,0,0.2,0h2.9c0.7,0,1.5,0.1,2.1,0.4
			c0.5,0.2,0.8,0.7,0.8,1.2c0,0.4-0.1,0.7-0.4,0.9c-0.3,0.3-0.7,0.4-1.1,0.5l1.7,1.9v0.1c0,0,0,0.1-0.1,0.1s-0.1,0-0.2,0h-0.9
			c-0.1,0-0.2,0-0.3-0.1c-0.1,0-0.1-0.1-0.1-0.1l-1.5-1.8h-1.7v1.8c0,0.1,0,0.1-0.1,0.1s-0.1,0-0.2,0H130.9z M132.1,84h1.7
			c0.4,0,0.8,0,1.1-0.2c0.2-0.1,0.4-0.3,0.4-0.6c0-0.3-0.1-0.5-0.4-0.6c-0.3-0.2-0.7-0.2-1.1-0.2h-1.7V84z"/>
		<path d="M138.5,86.8c-0.1,0-0.1,0-0.2,0l-0.1-0.1v-4.8c0-0.1,0-0.1,0.1-0.1s0.1,0,0.2,0h4.9c0.1,0,0.1,0,0.2,0l0.1,0.1v0.4
			c0,0.1,0,0.1-0.1,0.1s-0.1,0-0.2,0h-3.8v1.4h3.5c0.1,0,0.1,0,0.2,0.1l0.1,0.1v0.4c0,0.1,0,0.1-0.1,0.1s-0.1,0-0.2,0h-3.5V86h3.8
			c0.1,0,0.1,0,0.2,0l0.1,0.1v0.4c0,0.1,0,0.1-0.1,0.1s-0.1,0-0.2,0L138.5,86.8z"/>
		<path d="M145.4,86.8c-0.1,0-0.1,0-0.2,0c-0.1,0-0.1-0.1-0.1-0.1v-4.8c0-0.1,0-0.1,0.1-0.1s0.1,0,0.2,0h3c0.5,0,1,0.1,1.5,0.2
			c0.4,0.1,0.7,0.3,1,0.5c0.5,0.5,0.5,1.3,0,1.8c-0.3,0.3-0.6,0.4-1,0.5c-0.5,0.1-1,0.2-1.5,0.2h-1.8v1.8c0,0.1,0,0.1-0.1,0.1
			s-0.1,0-0.2,0L145.4,86.8z M146.6,84.1h1.7c0.4,0,0.7-0.1,1.1-0.2c0.3-0.2,0.5-0.6,0.3-1c-0.1-0.1-0.2-0.2-0.3-0.3
			c-0.3-0.2-0.7-0.3-1.1-0.2h-1.7V84.1z"/>
		<path d="M151.6,86.8c-0.1,0-0.1,0-0.2,0l-0.1-0.1c0,0,0,0,0-0.1l2.8-4.8c0-0.1,0.1-0.1,0.1-0.1c0.1,0,0.2,0,0.2,0h1.1
			c0.1,0,0.2,0,0.3,0s0.1,0.1,0.1,0.1l2.7,4.8c0,0,0,0,0,0.1c0,0,0,0.1-0.1,0.1s-0.1,0-0.2,0h-0.9c-0.1,0-0.2,0-0.2,0l-0.1-0.1
			l-0.6-0.9h-3.4l-0.6,0.9l-0.1,0.1c-0.1,0-0.1,0-0.2,0H151.6z M153.7,84.9h2.7l-1.4-2.4L153.7,84.9z"/>
		<path d="M160.1,86.8c-0.1,0-0.1,0-0.2,0c-0.1,0-0.1-0.1-0.1-0.1v-4.8c0-0.1,0-0.1,0.1-0.1s0.1,0,0.2,0h1c0.1,0,0.1,0,0.2,0
			c0.1,0,0.1,0.1,0.1,0.1v4.8c0,0.1,0,0.1-0.1,0.1s-0.1,0-0.2,0H160.1z"/>
		<path d="M163.4,86.8c-0.1,0-0.1,0-0.2,0c-0.1,0-0.1-0.1-0.1-0.1v-4.8c0-0.1,0-0.1,0.1-0.1s0.1,0,0.2,0h2.9c0.7,0,1.5,0.1,2.1,0.4
			c0.5,0.2,0.8,0.7,0.8,1.2c0,0.4-0.1,0.7-0.4,0.9c-0.3,0.3-0.7,0.4-1.1,0.5l1.7,1.9v0.1c0,0,0,0.1-0.1,0.1h-0.1h-0.9
			c-0.1,0-0.2,0-0.3-0.1c-0.1,0-0.1-0.1-0.1-0.1l-1.5-1.8h-1.7v1.8c0,0.1,0,0.1-0.1,0.1s-0.1,0-0.2,0H163.4z M164.6,84h1.7
			c0.4,0,0.8,0,1.1-0.2c0.2-0.1,0.4-0.4,0.4-0.6c0-0.3-0.1-0.5-0.4-0.6c-0.3-0.2-0.7-0.2-1.1-0.2h-1.7V84z"/>
		<path d="M173.4,86.9c-0.6,0-1.2-0.1-1.7-0.2c-0.4-0.1-0.8-0.3-1.1-0.5c-0.2-0.2-0.4-0.4-0.4-0.7c0,0,0-0.1,0.1-0.1s0.1,0,0.2,0
			h0.9c0.1,0,0.1,0,0.2,0l0.1,0.1c0.1,0.1,0.2,0.2,0.3,0.3c0.2,0.1,0.4,0.2,0.6,0.2c0.3,0.1,0.6,0.1,0.9,0.1c0.4,0,0.9,0,1.3-0.2
			c0.3-0.1,0.4-0.3,0.4-0.5s-0.1-0.3-0.2-0.4c-0.2-0.1-0.4-0.2-0.7-0.2l-1.2-0.2c-0.5-0.1-0.9-0.2-1.4-0.3c-0.3-0.1-0.6-0.2-0.9-0.5
			c-0.2-0.2-0.3-0.5-0.3-0.7c0-0.3,0.1-0.6,0.4-0.8c0.3-0.2,0.6-0.4,1-0.5c0.5-0.1,1-0.2,1.6-0.2c0.4,0,0.9,0,1.3,0.1
			c0.3,0.1,0.6,0.2,0.9,0.3c0.2,0.1,0.4,0.3,0.6,0.4c0.1,0.1,0.2,0.3,0.2,0.5c0,0,0,0.1-0.1,0.1s-0.1,0-0.2,0h-0.9
			c-0.1,0-0.1,0-0.2,0c-0.1,0-0.1-0.1-0.1-0.1c0-0.2-0.2-0.3-0.4-0.4c-0.3-0.1-0.7-0.2-1-0.2s-0.7,0-1,0.2c-0.2,0.1-0.4,0.3-0.4,0.5
			c0,0.1,0.1,0.3,0.2,0.4c0.2,0.1,0.4,0.2,0.6,0.2c0.3,0.1,0.7,0.2,1.1,0.2c0.5,0.1,1,0.2,1.6,0.3c0.3,0.1,0.6,0.2,0.9,0.5
			c0.2,0.2,0.3,0.4,0.3,0.7c0,0.3-0.1,0.6-0.4,0.8c-0.3,0.3-0.7,0.4-1.1,0.5C174.6,86.8,174,86.9,173.4,86.9z"/>
		<path d="M177.7,87.4h-0.1v-0.1l0.3-1.2c0-0.1,0.1-0.1,0.1-0.2c0.1,0,0.2-0.1,0.2-0.1h1h0.1l0.1,0.1V86l-0.7,1.2
			c0,0.1-0.1,0.1-0.1,0.1c-0.1,0-0.2,0.1-0.2,0.1H177.7z"/>
		<path d="M183.8,86.8c-0.1,0-0.1,0-0.2,0c-0.1,0-0.1-0.1-0.1-0.1v-4.8c0-0.1,0-0.1,0.1-0.1s0.1,0,0.2,0h3.2c0.5,0,1,0,1.5,0.2
			c0.3,0.1,0.6,0.3,0.8,0.5s0.3,0.5,0.3,0.7s0,0.4-0.1,0.5s-0.2,0.3-0.4,0.3c-0.1,0.1-0.3,0.2-0.4,0.2c0.3,0.1,0.6,0.2,0.8,0.4
			c0.2,0.2,0.3,0.5,0.3,0.7c0,0.3-0.1,0.6-0.3,0.8c-0.2,0.2-0.6,0.4-0.9,0.5c-0.5,0.1-1,0.2-1.4,0.2L183.8,86.8z M184.9,83.8h1.9
			c0.3,0,0.7,0,0.9-0.2c0.3-0.2,0.4-0.5,0.2-0.8c-0.1-0.1-0.1-0.2-0.2-0.2c-0.3-0.1-0.6-0.2-0.9-0.2h-1.9V83.8z M184.9,86.1h2
			c0.3,0,0.7-0.1,1-0.2c0.2-0.1,0.3-0.3,0.3-0.6c0-0.2-0.1-0.4-0.3-0.6c-0.3-0.2-0.7-0.3-1-0.2h-2V86.1z"/>
		<path d="M190.6,86.8c-0.1,0-0.1,0-0.2,0l-0.1-0.1c0,0,0,0,0-0.1l2.7-4.8c0-0.1,0.1-0.1,0.1-0.1c0.1,0,0.2,0,0.3,0h1.1
			c0.1,0,0.2,0,0.3,0s0.1,0.1,0.1,0.1l2.7,4.8c0,0,0,0,0,0.1c0,0,0,0.1-0.1,0.1s-0.1,0-0.2,0h-0.9c-0.1,0-0.1,0-0.2,0l-0.1-0.1
			l-0.6-0.9h-3.4l-0.6,0.9l-0.1,0.1c-0.1,0-0.1,0-0.2,0H190.6z M192.7,84.9h2.7l-1.4-2.4L192.7,84.9z"/>
		<path d="M200,86.8c-0.1,0-0.1,0-0.2,0l-0.1-0.1v-4.2h-2.1c-0.1,0-0.1,0-0.2,0l-0.1-0.1v-0.5c0-0.1,0-0.1,0.1-0.1s0.1,0,0.2,0h5.7
			c0.1,0,0.1,0,0.2,0l0.1,0.1v0.5c0,0.1,0,0.1-0.1,0.1s-0.1,0-0.2,0h-2.1v4.1c0,0.1,0,0.1-0.1,0.1s-0.1,0-0.2,0L200,86.8z"/>
		<path d="M206.8,86.8c-0.1,0-0.1,0-0.2,0l-0.1-0.1v-4.2h-2.1c-0.1,0-0.1,0-0.2,0c-0.1,0-0.1-0.1-0.1-0.1v-0.5c0-0.1,0-0.1,0.1-0.1
			s0.1,0,0.2,0h5.7c0.1,0,0.1,0,0.2,0c0.1,0,0.1,0.1,0.1,0.1v0.5c0,0.1,0,0.1-0.1,0.1s-0.1,0-0.2,0H208v4.1c0,0.1,0,0.1-0.1,0.1
			s-0.1,0-0.2,0L206.8,86.8z"/>
		<path d="M211.8,86.8c-0.1,0-0.1,0-0.2,0l-0.1-0.1v-4.8c0-0.1,0-0.1,0.1-0.1s0.1,0,0.2,0h4.9c0.1,0,0.1,0,0.2,0l0.1,0.1v0.4
			c0,0.1,0,0.1-0.1,0.1s-0.1,0-0.2,0H213v1.4h3.5c0.1,0,0.1,0,0.2,0.1l0.1,0.1v0.4c0,0.1,0,0.1-0.1,0.1s-0.1,0-0.2,0H213V86h3.8
			c0.1,0,0.1,0,0.2,0l0.1,0.1v0.4c0,0.1,0,0.1-0.1,0.1s-0.1,0-0.2,0L211.8,86.8z"/>
		<path d="M218.8,86.8c-0.1,0-0.1,0-0.2,0c-0.1,0-0.1-0.1-0.1-0.1v-4.8c0-0.1,0-0.1,0.1-0.1s0.1,0,0.2,0h2.9c0.7,0,1.5,0.1,2.1,0.4
			c0.5,0.2,0.8,0.7,0.8,1.2c0,0.4-0.1,0.7-0.4,0.9c-0.3,0.3-0.7,0.4-1.1,0.5l1.7,1.9v0.1c0,0,0,0.1-0.1,0.1h-0.1h-0.9
			c-0.1,0-0.2,0-0.3-0.1c-0.1,0-0.1-0.1-0.1-0.1l-1.5-1.8H220v1.8c0,0.1,0,0.1-0.1,0.1s-0.1,0-0.2,0H218.8z M220,84.1h1.7
			c0.4,0,0.8,0,1.1-0.2c0.2-0.1,0.4-0.4,0.4-0.6c0-0.3-0.1-0.5-0.4-0.6c-0.3-0.2-0.7-0.2-1.1-0.2H220V84.1z"/>
		<path d="M226.4,86.8c-0.1,0-0.1,0-0.2,0c-0.1,0-0.1-0.1-0.1-0.1v-4.8c0-0.1,0-0.1,0.1-0.1s0.1,0,0.2,0h1c0.1,0,0.1,0,0.2,0
			c0.1,0,0.1,0.1,0.1,0.1v4.8c0,0.1,0,0.1-0.1,0.1s-0.1,0-0.2,0H226.4z"/>
		<path d="M229.6,86.8c-0.1,0-0.1,0-0.2,0c-0.1,0-0.1-0.1-0.1-0.1v-4.8c0-0.1,0-0.1,0.1-0.1s0.1,0,0.2,0h4.9c0.1,0,0.1,0,0.2,0
			l0.1,0.1v0.4c0,0.1,0,0.1-0.1,0.1s-0.1,0-0.2,0h-3.8v1.4h3.5c0.1,0,0.1,0,0.2,0.1l0.1,0.1v0.4c0,0.1,0,0.1-0.1,0.1s-0.1,0-0.2,0
			h-3.5V86h3.8c0.1,0,0.1,0,0.2,0l0.1,0.1v0.4c0,0.1,0,0.1-0.1,0.1s-0.1,0-0.2,0L229.6,86.8z"/>
		<path d="M239.1,86.9c-0.6,0-1.2-0.1-1.7-0.2c-0.4-0.1-0.8-0.3-1.1-0.5c-0.2-0.2-0.4-0.4-0.4-0.7c0,0,0-0.1,0.1-0.1s0.1,0,0.2,0
			h0.9c0.1,0,0.1,0,0.2,0l0.1,0.1c0.1,0.1,0.2,0.2,0.3,0.3c0.2,0.1,0.4,0.2,0.6,0.2c0.3,0.1,0.6,0.1,0.9,0.1c0.4,0,0.9,0,1.3-0.2
			c0.3-0.1,0.4-0.3,0.4-0.5s-0.1-0.3-0.2-0.4c-0.2-0.1-0.4-0.2-0.7-0.2l-1.2-0.2c-0.5-0.1-0.9-0.2-1.4-0.3c-0.3-0.1-0.6-0.2-0.9-0.5
			c-0.2-0.2-0.3-0.5-0.3-0.7c0-0.3,0.1-0.6,0.4-0.8c0.3-0.2,0.6-0.4,1-0.5c0.5-0.1,1-0.2,1.5-0.2c0.4,0,0.9,0,1.3,0.1
			c0.3,0.1,0.6,0.2,0.9,0.3c0.2,0.1,0.4,0.3,0.6,0.4c0.1,0.1,0.2,0.3,0.2,0.5c0,0,0,0.1-0.1,0.1s-0.1,0-0.2,0h-0.9
			c-0.1,0-0.1,0-0.2,0c-0.1,0-0.1-0.1-0.1-0.1c0-0.2-0.1-0.3-0.4-0.4c-0.3-0.1-0.7-0.2-1-0.2s-0.7,0-1,0.2c-0.2,0.1-0.4,0.3-0.4,0.5
			c0,0.1,0.1,0.3,0.2,0.4c0.2,0.1,0.4,0.2,0.6,0.2c0.4,0.1,0.7,0.2,1.1,0.2c0.5,0.1,1,0.2,1.6,0.3c0.3,0.1,0.6,0.2,0.9,0.5
			c0.2,0.2,0.3,0.4,0.3,0.7c0,0.3-0.1,0.6-0.4,0.8c-0.3,0.3-0.7,0.4-1.1,0.5C240.2,86.9,239.6,86.9,239.1,86.9z"/>
		<path d="M243.3,87.4h-0.1v-0.1l0.3-1.2c0-0.1,0-0.1,0.1-0.2s0.2-0.1,0.2-0.1h1h0.1l0.1,0.1V86l-0.7,1.2c0,0.1-0.1,0.1-0.1,0.1
			c-0.1,0-0.1,0.1-0.2,0.1H243.3z"/>
		<path d="M252.2,86.9c-0.6,0-1.2-0.1-1.8-0.2c-0.4-0.1-0.8-0.4-1.1-0.7c-0.2-0.3-0.4-0.6-0.4-1c0-0.2,0-0.4,0-0.7s0-0.5,0-0.7
			c0-0.4,0.2-0.7,0.4-1c0.3-0.3,0.7-0.6,1.1-0.7c1-0.3,2.1-0.3,3.2-0.1c0.3,0.1,0.7,0.2,1,0.4c0.2,0.1,0.4,0.3,0.6,0.5
			c0.1,0.1,0.2,0.3,0.2,0.5v0.1c-0.1,0-0.1,0-0.2,0h-1c-0.1,0-0.1,0-0.2,0l-0.1-0.1c-0.1-0.1-0.2-0.2-0.3-0.3
			c-0.2-0.1-0.4-0.2-0.6-0.3c-0.3-0.1-0.6-0.1-0.9-0.1c-0.4,0-0.9,0.1-1.3,0.3c-0.3,0.2-0.5,0.5-0.5,0.9s0,0.9,0,1.3
			s0.2,0.7,0.5,0.9c0.4,0.2,0.8,0.3,1.3,0.3c0.3,0,0.7,0,1-0.1s0.5-0.2,0.7-0.4c0.2-0.2,0.2-0.4,0.2-0.7v-0.2h-1.5
			c-0.1,0-0.1,0-0.2-0.1c-0.1,0-0.1-0.1-0.1-0.1v-0.3c0-0.1,0-0.1,0.1-0.1s0.1,0,0.2,0h2.7c0.1,0,0.1,0,0.2,0l0.1,0.1V85
			c0,0.4-0.1,0.8-0.4,1.1c-0.3,0.3-0.7,0.6-1.2,0.7C253.4,86.9,252.8,86.9,252.2,86.9z"/>
		<path d="M256.3,86.8c-0.1,0-0.1,0-0.2,0l-0.1-0.1c0,0,0,0,0-0.1l2.8-4.8c0-0.1,0.1-0.1,0.1-0.1c0.1,0,0.2,0,0.2,0h1.1
			c0.1,0,0.2,0,0.3,0c0.1,0,0.1,0.1,0.1,0.1l2.7,4.8c0,0,0,0,0,0.1c0,0,0,0.1-0.1,0.1s-0.1,0-0.2,0h-0.9c-0.1,0-0.1,0-0.2,0
			l-0.1-0.1l-0.6-0.9H258l-0.6,0.9l-0.1,0.1c-0.1,0-0.1,0-0.2,0H256.3z M258.4,84.9h2.7l-1.4-2.4L258.4,84.9z"/>
		<path d="M264.9,86.8c-0.1,0-0.1,0-0.2,0s-0.1-0.1-0.1-0.1v-4.8c0-0.1,0-0.1,0.1-0.1s0.1,0,0.2,0h0.8c0.1,0,0.2,0,0.2,0l0.1,0.1
			l2.2,2.7l2.2-2.7l0.1-0.1c0.1,0,0.1,0,0.2,0h0.8c0.1,0,0.1,0,0.2,0s0.1,0.1,0.1,0.1v4.8c0,0.1,0,0.1-0.1,0.1s-0.1,0-0.2,0h-0.9
			c-0.1,0-0.1,0-0.2,0l-0.1-0.1v-3.3l-1.7,2.1l-0.1,0.1c-0.1,0-0.2,0-0.2,0H268c-0.1,0-0.2,0-0.2,0c-0.1,0-0.1-0.1-0.1-0.1l-1.6-2.1
			v3.3c0,0.1,0,0.1-0.1,0.1s-0.1,0-0.2,0H264.9z"/>
		<path d="M274,86.8c-0.1,0-0.1,0-0.2,0s-0.1-0.1-0.1-0.1v-4.8c0-0.1,0-0.1,0.1-0.1s0.1,0,0.2,0h4.9c0.1,0,0.1,0,0.2,0l0.1,0.1v0.4
			c0,0.1,0,0.1-0.1,0.1s-0.1,0-0.2,0h-3.8v1.4h3.5c0.1,0,0.1,0,0.2,0.1l0.1,0.1v0.4c0,0.1,0,0.1-0.1,0.1s-0.1,0-0.2,0h-3.5V86h3.9
			c0.1,0,0.1,0,0.2,0l0.1,0.1v0.4c0,0.1,0,0.1-0.1,0.1s-0.1,0-0.2,0L274,86.8z"/>
		<path d="M286.3,86.9c-0.6,0-1.2-0.1-1.8-0.2c-0.4-0.1-0.8-0.4-1.1-0.7c-0.3-0.3-0.4-0.7-0.4-1.1c0-0.2,0-0.4,0-0.6s0-0.5,0-0.7
			c0-0.4,0.2-0.8,0.4-1.1c0.3-0.3,0.7-0.6,1.1-0.7c0.6-0.2,1.2-0.3,1.8-0.2c0.5,0,0.9,0,1.4,0.1c0.3,0.1,0.7,0.2,1,0.4
			c0.3,0.1,0.5,0.3,0.6,0.5s0.2,0.4,0.2,0.7c0,0,0,0.1-0.1,0.1s-0.1,0.1-0.2,0.1h-1c-0.1,0-0.1,0-0.2-0.1c-0.1,0-0.1-0.1-0.1-0.1
			c-0.1-0.3-0.3-0.6-0.6-0.7c-0.4-0.1-0.8-0.2-1.1-0.2c-0.4,0-0.9,0.1-1.3,0.3c-0.3,0.2-0.5,0.6-0.5,1s0,0.8,0,1.2
			c0,0.4,0.2,0.8,0.5,1c0.4,0.2,0.8,0.3,1.3,0.3c0.4,0,0.8-0.1,1.1-0.2c0.3-0.1,0.5-0.4,0.6-0.7c0-0.1,0.1-0.1,0.1-0.1
			c0.1,0,0.1,0,0.2,0h1c0.1,0,0.1,0,0.2,0l0.1,0.1c0,0.2-0.1,0.5-0.2,0.7c-0.2,0.2-0.4,0.4-0.6,0.5c-0.3,0.2-0.7,0.3-1,0.4
			C287.2,86.9,286.8,86.9,286.3,86.9z"/>
		<path d="M294,86.9c-0.6,0-1.2-0.1-1.7-0.2c-0.4-0.1-0.8-0.3-1.1-0.7c-0.3-0.3-0.4-0.7-0.4-1.1c0-0.2,0-0.4,0-0.6s0-0.4,0-0.6
			c0-0.4,0.2-0.8,0.4-1.1c0.3-0.3,0.7-0.6,1.1-0.7c0.5-0.2,1.1-0.2,1.7-0.2s1.1,0.1,1.7,0.2c0.4,0.1,0.8,0.4,1.1,0.7
			c0.3,0.3,0.4,0.7,0.4,1.1c0,0.2,0,0.4,0,0.6s0,0.4,0,0.6c0,0.4-0.2,0.8-0.4,1.1c-0.3,0.3-0.7,0.6-1.1,0.7
			C295.2,86.8,294.6,86.9,294,86.9z M294,86.1c0.4,0,0.9-0.1,1.2-0.3c0.3-0.2,0.5-0.6,0.5-1c0-0.2,0-0.4,0-0.6s0-0.4,0-0.6
			c0-0.3-0.1-0.5-0.3-0.7c-0.2-0.2-0.4-0.3-0.6-0.4c-0.3-0.1-0.6-0.1-0.9-0.1s-0.6,0-0.9,0.1c-0.2,0.1-0.5,0.2-0.6,0.4
			c-0.2,0.2-0.2,0.5-0.3,0.7c0,0.2,0,0.4,0,0.6s0,0.4,0,0.6c0,0.4,0.2,0.8,0.5,1C293.1,86,293.6,86.1,294,86.1z"/>
		<path d="M299.1,86.8c-0.1,0-0.1,0-0.2,0l-0.1-0.1v-4.8c0-0.1,0-0.1,0.1-0.1s0.1,0,0.2,0h0.8c0.1,0,0.1,0,0.2,0c0,0,0.1,0,0.1,0.1
			l3.4,3.4v-3.4c0-0.1,0-0.1,0.1-0.1s0.1,0,0.2,0h0.9c0.1,0,0.1,0,0.2,0l0.1,0.1v4.8c0,0.1,0,0.1-0.1,0.1s-0.1,0.1-0.2,0.1H304
			c-0.1,0-0.2,0-0.2,0l-0.1-0.1l-3.4-3.3v3.3c0,0.1,0,0.1-0.1,0.1s-0.1,0-0.2,0L299.1,86.8z"/>
		<path d="M309.5,86.9c-0.6,0-1.2-0.1-1.7-0.2c-0.4-0.1-0.8-0.3-1.1-0.5c-0.2-0.2-0.4-0.4-0.4-0.7c0,0,0-0.1,0.1-0.1s0.1,0,0.2,0
			h0.9c0.1,0,0.1,0,0.2,0l0.1,0.1c0.1,0.1,0.2,0.2,0.3,0.3c0.2,0.1,0.4,0.2,0.5,0.2c0.3,0.1,0.6,0.1,0.9,0.1c0.4,0,0.9,0,1.3-0.2
			c0.3-0.1,0.4-0.3,0.4-0.5s-0.1-0.3-0.2-0.4c-0.2-0.1-0.4-0.2-0.7-0.2l-1.2-0.2c-0.5-0.1-0.9-0.2-1.4-0.3c-0.3-0.1-0.6-0.2-0.9-0.5
			c-0.2-0.2-0.3-0.5-0.3-0.7c0-0.3,0.1-0.6,0.4-0.8c0.3-0.2,0.6-0.4,1-0.5c0.5-0.1,1-0.2,1.5-0.2c0.4,0,0.9,0,1.3,0.1
			c0.3,0.1,0.6,0.2,0.9,0.3c0.2,0.1,0.4,0.3,0.6,0.4c0.1,0.1,0.2,0.3,0.2,0.5c0,0,0,0.1-0.1,0.1s-0.1,0-0.2,0h-0.9
			c-0.1,0-0.1,0-0.2,0s-0.1-0.1-0.1-0.1c0-0.2-0.2-0.3-0.5-0.4s-0.7-0.2-1-0.2s-0.7,0-1,0.2c-0.2,0.1-0.4,0.3-0.4,0.5
			c0,0.1,0.1,0.3,0.2,0.4c0.2,0.1,0.4,0.2,0.6,0.2c0.4,0.1,0.7,0.2,1.1,0.2c0.5,0.1,1,0.2,1.5,0.3c0.3,0.1,0.6,0.2,0.9,0.5
			c0.2,0.2,0.3,0.4,0.3,0.7c0,0.3-0.1,0.6-0.4,0.8c-0.3,0.3-0.7,0.4-1.1,0.5C310.6,86.8,310,86.9,309.5,86.9z"/>
		<path d="M317,86.9c-0.6,0-1.2-0.1-1.7-0.2c-0.4-0.1-0.8-0.3-1.1-0.7c-0.3-0.3-0.4-0.7-0.4-1.1c0-0.2,0-0.4,0-0.6s0-0.4,0-0.6
			c0-0.4,0.2-0.8,0.4-1.1c0.3-0.3,0.7-0.6,1.1-0.7c0.5-0.2,1.1-0.2,1.7-0.2s1.1,0.1,1.7,0.2c0.4,0.1,0.8,0.4,1.1,0.7
			c0.3,0.3,0.4,0.7,0.4,1.1c0,0.2,0,0.4,0,0.6s0,0.4,0,0.6c0,0.4-0.2,0.8-0.4,1.1c-0.3,0.3-0.7,0.6-1.1,0.7
			C318.2,86.8,317.6,86.9,317,86.9z M317,86.1c0.4,0,0.9-0.1,1.2-0.3c0.3-0.2,0.5-0.6,0.5-1c0-0.2,0-0.4,0-0.6s0-0.4,0-0.6
			c0-0.3-0.1-0.5-0.3-0.7c-0.2-0.2-0.4-0.3-0.6-0.4c-0.3-0.1-0.6-0.1-0.9-0.1s-0.6,0-0.9,0.1c-0.2,0.1-0.5,0.2-0.6,0.4
			c-0.2,0.2-0.2,0.5-0.3,0.7c0,0.2,0,0.4,0,0.6s0,0.4,0,0.6c0,0.4,0.2,0.8,0.5,1C316.1,86,316.6,86.1,317,86.1z"/>
		<path d="M322,86.8c-0.1,0-0.1,0-0.2,0s-0.1-0.1-0.1-0.1v-4.8c0-0.1,0-0.1,0.1-0.1s0.1,0,0.2,0h1c0.1,0,0.1,0,0.2,0l0.1,0.1V86h3.6
			c0.1,0,0.1,0,0.2,0.1l0.1,0.1v0.5c0,0.1,0,0.1-0.1,0.1s-0.1,0-0.2,0L322,86.8z"/>
		<path d="M328.5,86.8c-0.1,0-0.1,0-0.2,0l-0.1-0.1v-4.8c0-0.1,0-0.1,0.1-0.1s0.1,0,0.2,0h4.9c0.1,0,0.1,0,0.2,0s0.1,0.1,0.1,0.1
			v0.4c0,0.1,0,0.1-0.1,0.1s-0.1,0-0.2,0h-3.8v1.4h3.5c0.1,0,0.1,0,0.2,0.1l0.1,0.1v0.4c0,0.1,0,0.1-0.1,0.1s-0.1,0-0.2,0h-3.5V86
			h3.8c0.1,0,0.1,0,0.2,0l0.1,0.1v0.4c0,0.1,0,0.1-0.1,0.1s-0.1,0-0.2,0L328.5,86.8z"/>
		<path d="M337.9,86.9c-0.6,0-1.2-0.1-1.7-0.2c-0.4-0.1-0.8-0.3-1.1-0.5c-0.2-0.2-0.4-0.4-0.4-0.7c0,0,0-0.1,0.1-0.1s0.1,0,0.2,0
			h0.9c0.1,0,0.1,0,0.2,0l0.1,0.1c0.1,0.1,0.2,0.2,0.3,0.3c0.2,0.1,0.3,0.2,0.5,0.2c0.3,0.1,0.6,0.1,0.9,0.1c0.4,0,0.9,0,1.3-0.2
			c0.3-0.1,0.4-0.3,0.4-0.5s-0.1-0.3-0.2-0.4c-0.2-0.1-0.4-0.2-0.7-0.2l-1.2-0.2c-0.5-0.1-0.9-0.2-1.4-0.3c-0.3-0.1-0.6-0.2-0.9-0.5
			c-0.2-0.2-0.2-0.5-0.2-0.7c0-0.3,0.1-0.6,0.4-0.8c0.3-0.2,0.6-0.4,1-0.5c0.5-0.1,1-0.2,1.5-0.2c0.4,0,0.9,0,1.3,0.1
			c0.3,0.1,0.6,0.2,0.9,0.3c0.2,0.1,0.4,0.3,0.6,0.4c0.1,0.1,0.2,0.3,0.2,0.5c0,0,0,0.1-0.1,0.1s-0.1,0-0.2,0h-0.9
			c-0.1,0-0.1,0-0.2,0s-0.1-0.1-0.1-0.1c0-0.2-0.2-0.3-0.5-0.4s-0.7-0.2-1-0.2s-0.7,0-1,0.2c-0.2,0.1-0.4,0.3-0.4,0.5
			c0,0.1,0.1,0.3,0.2,0.4c0.2,0.1,0.4,0.2,0.6,0.2c0.3,0.1,0.7,0.2,1.1,0.2c0.5,0.1,1,0.2,1.5,0.3c0.3,0.1,0.6,0.2,0.9,0.5
			c0.2,0.2,0.3,0.4,0.3,0.7c0,0.3-0.1,0.6-0.4,0.8c-0.3,0.3-0.7,0.4-1.1,0.5C339.1,86.8,338.5,86.9,337.9,86.9z"/>
		<path d="M342.2,87.4h-0.1v-0.1l0.3-1.2c0-0.1,0.1-0.1,0.1-0.2c0.1,0,0.2-0.1,0.2-0.1h1h0.1l0.1,0.1V86l-0.7,1.2
			c0,0.1-0.1,0.1-0.1,0.1c-0.1,0-0.2,0.1-0.2,0.1H342.2z"/>
		<path d="M348.3,86.8c-0.1,0-0.1,0-0.2,0s-0.1-0.1-0.1-0.1v-4.8c0-0.1,0-0.1,0.1-0.1s0.1,0,0.2,0h0.9c0.1,0,0.1,0,0.2,0l0.1,0.1V86
			h3.6c0.1,0,0.1,0,0.2,0.1l0.1,0.1v0.5c0,0.1,0,0.1-0.1,0.1s-0.1,0-0.2,0L348.3,86.8z"/>
		<path d="M354,86.8c-0.1,0-0.1,0-0.2,0l-0.1-0.1c0,0,0,0,0-0.1l2.8-4.8c0-0.1,0.1-0.1,0.1-0.1c0.1,0,0.2,0,0.2,0h1.1
			c0.1,0,0.2,0,0.3,0c0.1,0,0.1,0.1,0.1,0.1l2.7,4.8c0,0,0,0,0,0.1c0,0,0,0.1-0.1,0.1s-0.1,0-0.2,0H360c-0.1,0-0.1,0-0.2,0l-0.1-0.1
			l-0.6-0.9h-3.4l-0.6,0.9l-0.1,0.1c-0.1,0-0.1,0-0.2,0H354z M356.1,84.9h2.7l-1.4-2.4L356.1,84.9z"/>
		<path d="M362.5,86.8c-0.1,0-0.1,0-0.2,0s-0.1-0.1-0.1-0.1v-4.8c0-0.1,0-0.1,0.1-0.1s0.1,0,0.2,0h3c0.5,0,1,0.1,1.5,0.2
			c0.4,0.1,0.7,0.3,1,0.5c0.5,0.5,0.5,1.3,0,1.8c-0.3,0.3-0.6,0.4-1,0.5c-0.5,0.1-1,0.2-1.5,0.2h-1.8v1.8c0,0.1,0,0.1-0.1,0.1
			s-0.1,0-0.2,0L362.5,86.8z M363.7,84.1h1.7c0.4,0,0.7-0.1,1.1-0.2c0.2-0.1,0.4-0.4,0.4-0.6c0-0.3-0.1-0.5-0.4-0.6
			c-0.3-0.2-0.7-0.3-1.1-0.2h-1.7V84.1z"/>
		<path d="M371.7,86.8c-0.1,0-0.1,0-0.2,0l-0.1-0.1v-4.2h-2.1c-0.1,0-0.1,0-0.2,0l-0.1-0.1v-0.5c0-0.1,0-0.1,0.1-0.1s0.1,0,0.2,0
			h5.7c0.1,0,0.1,0,0.2,0l0.1,0.1v0.5c0,0.1,0,0.1-0.1,0.1s-0.1,0-0.2,0h-2.1v4.1c0,0.1,0,0.1-0.1,0.1s-0.1,0-0.2,0L371.7,86.8z"/>
		<path d="M379.3,86.9c-0.6,0-1.2-0.1-1.7-0.2c-0.4-0.1-0.8-0.3-1.1-0.7c-0.3-0.3-0.4-0.7-0.4-1.1c0-0.2,0-0.4,0-0.6s0-0.4,0-0.6
			c0-0.4,0.2-0.8,0.4-1.1c0.3-0.3,0.7-0.6,1.1-0.7c0.5-0.2,1.1-0.2,1.7-0.2s1.1,0.1,1.7,0.2c0.4,0.1,0.8,0.4,1.1,0.7
			c0.3,0.3,0.4,0.7,0.4,1.1c0,0.2,0,0.4,0,0.6s0,0.4,0,0.6c0,0.4-0.2,0.8-0.4,1.1c-0.3,0.3-0.7,0.6-1.1,0.7
			C380.4,86.8,379.8,86.9,379.3,86.9z M379.3,86.1c0.4,0,0.9-0.1,1.2-0.3c0.3-0.2,0.5-0.6,0.5-1c0-0.2,0-0.4,0-0.6s0-0.4,0-0.6
			c0-0.3-0.1-0.5-0.3-0.7c-0.2-0.2-0.4-0.3-0.6-0.4c-0.3-0.1-0.6-0.1-0.9-0.1s-0.6,0-0.9,0.1c-0.2,0.1-0.5,0.2-0.6,0.4
			c-0.2,0.2-0.2,0.5-0.3,0.7c0,0.2,0,0.4,0,0.6s0,0.4,0,0.6c0,0.4,0.2,0.8,0.5,1C378.4,86,378.8,86.1,379.3,86.1z"/>
		<path d="M384.3,86.8c-0.1,0-0.1,0-0.2,0l-0.1-0.1v-4.8c0-0.1,0-0.1,0.1-0.1s0.1,0,0.2,0h3c0.5,0,1,0.1,1.5,0.2
			c0.4,0.1,0.7,0.3,1,0.5c0.5,0.5,0.5,1.3,0,1.8c-0.3,0.3-0.6,0.4-1,0.5c-0.5,0.1-1,0.2-1.5,0.2h-1.8v1.8c0,0.1,0,0.1-0.1,0.1
			s-0.1,0-0.2,0L384.3,86.8z M385.5,84.1h1.7c0.4,0,0.7-0.1,1.1-0.2c0.2-0.1,0.4-0.4,0.4-0.6c0-0.3-0.1-0.5-0.4-0.6
			c-0.3-0.2-0.7-0.3-1.1-0.2h-1.7V84.1z"/>
		<path d="M394.2,86.9c-0.6,0-1.2-0.1-1.7-0.2c-0.4-0.1-0.8-0.3-1.1-0.5c-0.2-0.2-0.4-0.4-0.4-0.7c0,0,0-0.1,0.1-0.1s0.1,0,0.2,0
			h0.9c0.1,0,0.1,0,0.2,0l0.1,0.1c0.1,0.1,0.2,0.2,0.3,0.3c0.2,0.1,0.4,0.2,0.5,0.2c0.3,0.1,0.6,0.1,0.9,0.1c0.4,0,0.9,0,1.3-0.2
			c0.3-0.1,0.4-0.3,0.4-0.5s-0.1-0.3-0.2-0.4c-0.2-0.1-0.4-0.2-0.7-0.2l-1.2-0.2c-0.5-0.1-0.9-0.2-1.4-0.3c-0.3-0.1-0.6-0.2-0.9-0.5
			c-0.2-0.2-0.3-0.5-0.3-0.7c0-0.3,0.1-0.6,0.4-0.8c0.3-0.2,0.6-0.4,1-0.5c0.5-0.1,1-0.2,1.5-0.2c0.4,0,0.9,0,1.3,0.1
			c0.3,0.1,0.6,0.2,0.9,0.3c0.2,0.1,0.4,0.3,0.6,0.4c0.1,0.1,0.2,0.3,0.2,0.5c0,0,0,0.1-0.1,0.1s-0.1,0-0.2,0h-0.9
			c-0.1,0-0.1,0-0.2,0s-0.1-0.1-0.1-0.1c0-0.2-0.2-0.3-0.5-0.4s-0.7-0.2-1-0.2s-0.7,0-1,0.2c-0.2,0.1-0.4,0.3-0.4,0.5
			c0,0.1,0.1,0.3,0.2,0.4c0.2,0.1,0.4,0.2,0.6,0.2c0.3,0.1,0.7,0.2,1.1,0.2c0.5,0.1,1,0.2,1.5,0.3c0.3,0.1,0.6,0.2,0.9,0.5
			c0.2,0.2,0.3,0.4,0.3,0.7c0,0.3-0.1,0.6-0.4,0.8c-0.3,0.3-0.7,0.4-1.1,0.5C395.3,86.8,394.7,86.9,394.2,86.9z"/>
		<path d="M82.5,20.8c0-2.1,0.9-4.1,2.5-5.5c1.8-1.3,4-2,6.2-1.9h20.9c1.4,0,2.5,1.1,2.5,2.5s-1.1,2.5-2.5,2.5H91.2
			c-1.1-0.1-2.2,0.2-3.1,0.8c-0.5,0.4-0.8,1-0.7,1.7c-0.1,0.6,0.2,1.3,0.7,1.7c0.9,0.6,2,0.9,3.1,0.8h17.1c2.2-0.1,4.4,0.6,6.2,1.9
			c3,2.6,3.4,7.1,0.8,10.1c-0.2,0.3-0.5,0.6-0.8,0.8c-1.8,1.3-4,2-6.2,1.9H85.8c-1.4,0-2.5-1.1-2.5-2.5s1.1-2.5,2.5-2.5l0,0h22.5
			c1.1,0.1,2.2-0.2,3.1-0.8c0.9-0.9,1-2.3,0.1-3.2l-0.1-0.1c-0.9-0.6-2-0.9-3.1-0.8H91.2c-2.2,0.1-4.4-0.6-6.2-1.9
			C83.4,24.9,82.5,22.9,82.5,20.8z"/>
		<path d="M121.3,35.6V15.9c0-1.4,1.1-2.5,2.5-2.5s2.5,1.1,2.5,2.5v7.4h24.6v-7.4c0-1.4,1.1-2.5,2.5-2.5s2.5,1.1,2.5,2.5v19.7
			c0,1.4-1.1,2.5-2.5,2.5s-2.5-1.1-2.5-2.5l0,0v-7.4h-24.6v7.4c0,1.4-1.1,2.5-2.5,2.5C122.4,38,121.3,36.9,121.3,35.6L121.3,35.6z"
			/>
		<path d="M160,35.6V23.3c-0.1-2.8,1.2-5.5,3.3-7.3c2.4-1.8,5.4-2.7,8.5-2.6h10.9c3-0.1,6,0.8,8.5,2.6c2.2,1.8,3.4,4.5,3.3,7.3v12.3
			c0,1.4-1.1,2.5-2.5,2.5s-2.5-1.1-2.5-2.5l0,0v-7.4h-24.6v7.4c0,1.4-1.1,2.5-2.5,2.5C161.1,38,160,36.9,160,35.6L160,35.6L160,35.6
			z M164.9,23.3h24.6c0.1-1.3-0.5-2.6-1.6-3.4c-1.6-1.1-3.5-1.6-5.4-1.5h-10.9c-1.9-0.1-3.8,0.4-5.4,1.5
			C165.4,20.7,164.8,21.9,164.9,23.3L164.9,23.3z"/>
		<path d="M201.1,18.3c-1.4,0-2.5-1.1-2.5-2.5s1.1-2.5,2.5-2.5h29.6c1.4,0,2.5,1.1,2.5,2.5s-1.1,2.5-2.5,2.5h-12.3v17.2
			c0,1.4-1.1,2.5-2.5,2.5s-2.5-1.1-2.5-2.5l0,0V18.3H201.1z"/>
		<path d="M239.9,18.3c-1.4,0-2.5-1.1-2.5-2.5s1.1-2.5,2.5-2.5h29.6c1.4,0,2.5,1.1,2.5,2.5s-1.1,2.5-2.5,2.5h-12.3v17.2
			c0,1.4-1.1,2.5-2.5,2.5s-2.5-1.1-2.5-2.5l0,0V18.3H239.9z"/>
		<path d="M279.4,35.5c-2.2-1.8-3.4-4.5-3.3-7.3v-4.9c-0.1-2.8,1.2-5.5,3.3-7.3c2.4-1.8,5.4-2.7,8.5-2.6h20.2c1.4,0,2.5,1.1,2.5,2.5
			s-1.1,2.5-2.5,2.5h-20.2c-1.9-0.1-3.8,0.4-5.4,1.5c-1,0.8-1.6,2.1-1.6,3.4h25.5c1.4,0,2.5,1.1,2.5,2.5s-1.1,2.5-2.5,2.5H281
			c-0.1,1.3,0.5,2.6,1.5,3.5c1.6,1.1,3.5,1.6,5.4,1.5h20.2c1.4,0.1,2.4,1.3,2.3,2.6c-0.1,1.2-1.1,2.2-2.3,2.3h-20.2
			C284.9,38.2,281.9,37.2,279.4,35.5L279.4,35.5z"/>
		<path d="M346.8,26.3c-0.6,0.5-1.4,0.9-2.1,1.2l4.3,6.8c0.8,1.1,0.5,2.6-0.6,3.4c-1.1,0.8-2.6,0.5-3.4-0.6
			c-0.1-0.1-0.1-0.1-0.1-0.2l-5.5-8.7h-19.5v7.4c0,1.4-1.1,2.5-2.5,2.5s-2.5-1.1-2.5-2.5V15.9c0-1.4,1.1-2.5,2.5-2.5h23.3
			c2.2-0.1,4.4,0.6,6.2,1.9c1.6,1.3,2.6,3.4,2.5,5.5C349.3,22.9,348.4,24.9,346.8,26.3z M319.8,23.3h20.9c1.1,0.1,2.2-0.2,3.1-0.8
			c0.5-0.4,0.8-1,0.7-1.7c0.1-0.6-0.2-1.3-0.7-1.7c-0.9-0.6-2-0.9-3.1-0.8h-20.9V23.3z"/>
		<path d="M356.1,21.4c0,0.1-0.1,0.1-0.1,0.1c-0.6,0.5-1.4,0.5-2,0c-0.3-0.3-0.4-0.6-0.4-1v-4.3c0-1.6,1.3-2.9,2.8-2.9
			s2.9,1.3,2.9,2.8c0,0.6-0.2,1.3-0.6,1.8L356.1,21.4L356.1,21.4z"/>
		<path d="M363.5,35.6V15.9c0-1.4,1.1-2.5,2.5-2.5h20.2c3-0.1,6,0.8,8.5,2.6c2.2,1.8,3.4,4.5,3.3,7.3v4.9c0.1,2.8-1.2,5.5-3.3,7.3
			c-2.4,1.8-5.4,2.7-8.5,2.6H366C364.6,38,363.5,36.9,363.5,35.6z M368.4,33.1h17.8c1.9,0.1,3.8-0.4,5.4-1.5c1-0.8,1.6-2.1,1.5-3.4
			v-4.9c0.1-1.3-0.5-2.6-1.5-3.4c-1.6-1.1-3.5-1.6-5.4-1.5h-17.7L368.4,33.1z"/>
		<path d="M85,60.4c-1.4-1.1-2.2-2.8-2.1-4.6v-3.1c0-1.8,0.7-3.5,2.1-4.6c1.5-1.1,3.4-1.7,5.4-1.6h12.8c0.9,0,1.6,0.7,1.6,1.6
			c0,0.9-0.7,1.6-1.6,1.6H90.4c-1.2-0.1-2.4,0.2-3.4,0.9c-0.7,0.5-1,1.3-1,2.2v3.1c0,0.9,0.4,1.7,1,2.2c1,0.7,2.2,1,3.4,0.9h12.8
			c0.9,0,1.6,0.7,1.6,1.6c0,0.9-0.7,1.6-1.6,1.6H90.4C88.5,62.1,86.5,61.6,85,60.4z"/>
		<path d="M109.8,60.4c-1.4-1.1-2.2-2.8-2.1-4.6v-3.1c0-1.8,0.7-3.5,2.1-4.6c1.5-1.1,3.4-1.7,5.4-1.6H128c0.9,0,1.6,0.7,1.6,1.6
			s-0.7,1.6-1.6,1.6l0,0h-12.8c-1.2-0.1-2.4,0.2-3.4,0.9c-0.7,0.5-1,1.3-1,2.2H127c0.9-0.1,1.6,0.6,1.7,1.4s-0.6,1.6-1.4,1.7
			c-0.1,0-0.2,0-0.2,0h-16.2c0,0.8,0.3,1.7,1,2.2c1,0.7,2.2,1,3.4,0.9H128c0.9-0.1,1.6,0.5,1.8,1.3c0.1,0.9-0.5,1.6-1.3,1.8
			c-0.1,0-0.3,0-0.4,0h-12.8C113.3,62.1,111.4,61.5,109.8,60.4L109.8,60.4z"/>
		<path d="M132.5,55.8V48c0-0.9,0.7-1.6,1.6-1.6c0.9,0,1.6,0.7,1.6,1.6v7.8c0,0.8,0.3,1.7,1,2.2c1,0.7,2.2,1,3.4,0.9h12.8
			c0.9,0,1.6,0.7,1.6,1.6c0,0.9-0.7,1.6-1.6,1.6H140c-1.9,0.1-3.8-0.5-5.4-1.6C133.2,59.3,132.5,57.6,132.5,55.8z"/>
		<path d="M157.3,55.8V48c0-0.9,0.7-1.6,1.6-1.6c0.9,0,1.6,0.7,1.6,1.6v7.8c0,0.8,0.3,1.7,1,2.2c1,0.7,2.2,1,3.4,0.9h12.8
			c0.9,0,1.6,0.7,1.6,1.6c0,0.9-0.7,1.6-1.6,1.6h-12.8c-1.9,0.1-3.8-0.5-5.4-1.6C158,59.3,157.3,57.6,157.3,55.8z"/>
		<path d="M196.4,51.1c0-1.3,0.6-2.6,1.6-3.5c1.1-0.8,2.5-1.3,3.9-1.2h13.2c0.9,0,1.6,0.7,1.6,1.6c0,0.9-0.7,1.6-1.6,1.6H202
			c-0.7,0-1.4,0.1-1.9,0.5c-0.6,0.6-0.6,1.5,0,2.1l0,0c0.6,0.4,1.3,0.6,1.9,0.5h10.8c1.4-0.1,2.8,0.4,3.9,1.2
			c1.9,1.6,2.1,4.5,0.5,6.4c-0.2,0.2-0.3,0.4-0.5,0.5c-1.1,0.8-2.5,1.3-3.9,1.2h-14.3c-0.9,0.1-1.6-0.6-1.7-1.4s0.6-1.6,1.4-1.7
			c0.1,0,0.2,0,0.2,0h14.3c0.7,0,1.4-0.1,1.9-0.5c0.6-0.6,0.6-1.5,0-2.1l0,0c-0.6-0.4-1.3-0.6-1.9-0.5H202c-1.4,0.1-2.8-0.4-3.9-1.2
			C197,53.7,196.4,52.5,196.4,51.1z"/>
		<path d="M243.1,52.7v3.1c0,1.8-0.7,3.5-2.1,4.6c-1.6,1.1-3.5,1.7-5.4,1.6h-6.9c-1.9,0.1-3.8-0.5-5.4-1.6c-1.4-1.1-2.2-2.8-2.1-4.6
			v-3.1c0-1.8,0.7-3.5,2.1-4.6c1.6-1.1,3.4-1.7,5.4-1.6h6.9c1.9-0.1,3.8,0.5,5.4,1.6C242.4,49.2,243.1,50.9,243.1,52.7z M240,52.7
			c0-0.8-0.3-1.7-1-2.2c-1-0.7-2.2-1-3.4-0.9h-6.9c-1.2-0.1-2.4,0.2-3.4,0.9c-0.7,0.5-1,1.3-1,2.2v3.1c0,0.8,0.3,1.7,1,2.2
			c1,0.7,2.2,1,3.4,0.9h6.9c1.2,0.1,2.4-0.2,3.4-0.9c0.7-0.5,1-1.3,1-2.2V52.7z"/>
		<path d="M246,55.8V48c0-0.9,0.7-1.6,1.6-1.6c0.9,0,1.6,0.7,1.6,1.6v7.8c0,0.8,0.3,1.7,1,2.2c1,0.7,2.2,1,3.4,0.9h12.8
			c0.9,0,1.6,0.7,1.6,1.6c0,0.9-0.7,1.6-1.6,1.6h-12.8c-1.9,0.1-3.8-0.5-5.4-1.6C246.8,59.3,246,57.6,246,55.8z"/>
		<path d="M292.7,48v7.8c0,1.8-0.7,3.5-2.1,4.6c-1.6,1.1-3.4,1.7-5.4,1.6h-6.9c-1.9,0.1-3.8-0.5-5.3-1.6c-1.4-1.1-2.2-2.8-2.1-4.6
			V48c0-0.9,0.7-1.6,1.6-1.6s1.6,0.7,1.6,1.6l0,0v7.8c0,0.8,0.3,1.7,1,2.2c1,0.7,2.2,1,3.4,0.9h6.9c1.2,0.1,2.4-0.2,3.4-0.9
			c0.7-0.5,1-1.3,1-2.2V48c0-0.9,0.7-1.6,1.6-1.6s1.6,0.7,1.6,1.6l0,0H292.7z"/>
		<path d="M297.2,49.6c-0.9,0-1.6-0.7-1.6-1.6c0-0.9,0.7-1.6,1.6-1.6H316c0.9,0,1.6,0.7,1.6,1.6c0,0.9-0.7,1.6-1.6,1.6l0,0h-7.8
			v10.9c0,0.9-0.7,1.6-1.6,1.6s-1.6-0.7-1.6-1.6V49.6H297.2z"/>
		<path d="M322,62c-0.9,0-1.6-0.7-1.6-1.5l0,0V48c0-0.9,0.7-1.6,1.6-1.6s1.6,0.7,1.6,1.6v12.5C323.5,61.3,322.8,62,322,62z"/>
		<path d="M348.3,52.7v3.1c0,1.8-0.7,3.5-2.1,4.6c-1.6,1.1-3.4,1.7-5.4,1.6H334c-1.9,0.1-3.8-0.5-5.4-1.6c-1.4-1.1-2.1-2.8-2.1-4.6
			v-3.1c0-1.8,0.7-3.5,2.1-4.6c1.6-1.1,3.4-1.7,5.4-1.6h6.9c1.9-0.1,3.8,0.5,5.4,1.6C347.6,49.2,348.4,50.9,348.3,52.7z M345.2,52.7
			c0-0.8-0.3-1.7-1-2.2c-1-0.7-2.2-1-3.4-0.9H334c-1.2-0.1-2.4,0.2-3.4,0.9c-0.7,0.5-1,1.3-1,2.2v3.1c0,0.8,0.3,1.7,1,2.2
			c1,0.7,2.2,1,3.4,0.9h6.9c1.2,0.1,2.4-0.2,3.4-0.9c0.7-0.5,1-1.3,1-2.2L345.2,52.7z"/>
		<path d="M351.3,60.5V48c0-0.9,0.7-1.6,1.5-1.6c0.3,0,0.6,0.1,0.9,0.3L370,57.6V48c0-0.9,0.7-1.6,1.6-1.6s1.6,0.7,1.6,1.6v12.5
			c0,0.6-0.3,1.1-0.8,1.4c-0.2,0.1-0.5,0.2-0.7,0.2c-0.3,0-0.6-0.1-0.9-0.3l-16.3-10.9v9.6c0,0.9-0.7,1.6-1.6,1.6
			C352,62,351.3,61.3,351.3,60.5z"/>
		<path d="M376.1,51.1c0-1.3,0.6-2.6,1.6-3.5c1.1-0.8,2.5-1.3,3.9-1.2h13.2c0.9,0,1.6,0.7,1.6,1.6c0,0.9-0.7,1.6-1.6,1.6l0,0h-13.2
			c-0.7,0-1.4,0.1-1.9,0.5c-0.6,0.6-0.6,1.5,0,2.1l0,0c0.6,0.4,1.3,0.6,1.9,0.5h10.8c1.4-0.1,2.8,0.4,3.9,1.2
			c1.9,1.6,2.1,4.5,0.5,6.4c-0.2,0.2-0.3,0.4-0.5,0.5c-1.1,0.8-2.5,1.3-3.9,1.2h-14.3c-0.9,0.1-1.6-0.6-1.7-1.4
			c-0.1-0.9,0.6-1.6,1.4-1.7c0.1,0,0.2,0,0.2,0h14.3c0.7,0,1.4-0.1,1.9-0.5c0.6-0.6,0.6-1.5,0-2.1l0,0c-0.6-0.4-1.3-0.6-1.9-0.5
			h-10.8c-1.4,0.1-2.8-0.4-3.9-1.2C376.6,53.7,376.1,52.5,376.1,51.1z"/>
	</g>
</g>
</svg>
